<?xml version="1.0" encoding="UTF-8"?> <!-- Generator: Adobe Illustrator 24.1.0, SVG Export Plug-In . SVG Version: 6.00 Build 0) --> <svg xmlns="http://www.w3.org/2000/svg" xmlns:xlink="http://www.w3.org/1999/xlink" version="1.1" id="Layer_1" x="0px" y="0px" width="250px" height="123.1893082px" viewBox="0 0 250 123.1893082" xml:space="preserve"> <path fill-rule="evenodd" clip-rule="evenodd" fill="#156666" d="M84.1405792,66.8700638 c-12.2084045,2.323555-10.3214645,23.1438828,2.2571869,22.2870865c2.9669876-0.2016754,5.3876953-1.975296,6.6386414-3.523056 c1.0671844-1.3195267,1.2532043-1.5404587,1.241951-3.7093582c-0.0082474-1.7352829-0.0018005-3.4722137-0.0018005-5.2072144 c-0.0008316-4.8105469,0.3070297-5.1249924-2.4579773-7.6967545C89.9958801,67.3252716,87.3912277,66.2518005,84.1405792,66.8700638 M96.0902634,92.0080566c0.7741547,2.0942612,0.4316864,4.0239182,3.0056915,4.1043091 c3.5305862,0.1102753,3.8680191-0.1467361,3.8520584-3.5726318l-0.0005493-28.7298317 c0.0011063-3.0707893,0.3801193-4.1873627-3.0042572-4.181221c-3.6921234,0.0061417-2.4337692,1.281292-3.9562988,3.3848457 c-1.2080612-0.5715065-3.1892776-3.3442307-8.8336334-4.1269379c-10.5761032-1.4667587-19.7887726,7.3136444-19.6373901,19.5024643 c0.0998993,8.0578461,4.4987869,13.841713,9.3570862,16.6067429C82.9970627,98.4821777,91.4105453,97.1819077,96.0902634,92.0080566 z"></path> <path fill-rule="evenodd" clip-rule="evenodd" fill="#156666" d="M9.3811073,63.6307411 c-0.7015629-0.9328194-0.6622229-2.6976395-1.5148115-3.5174179c-0.6683931-0.6423874-3.5835381-0.7149277-4.4885244-0.2289047 c-1.2121263,0.6503563-0.9153333,2.4421806-0.914614,4.1336327c0.0021026,4.3579483-0.150831,29.877388,0.0894694,30.7680969 c0.410857,1.5209808,2.2173991,1.320076,3.9138889,1.3182526c5.5210748-0.0051422,4.5725713-0.4001465,4.5720181-5.8545761 V74.8434219c-0.0025454-2.3317947-0.2959909-2.7438965,0.9729042-4.2449646 c3.9124231-4.628006,10.863184-5.3629684,14.0038834-1.3461914c1.6461678,2.1056061,1.7715454,5.1599045,1.7700253,8.5065231 l-0.0051746,15.4112701c-0.0084381,1.9666138,0.2123032,2.8715973,2.1984215,2.9430313 c6.6899586,0.2413483,6.0868587-0.1256027,6.0850315-4.4060287l0.0011063-15.4061279 c0.0040665-1.62323-0.2107811-3.7188721-0.124218-5.2043915c1.8011208-2.4728317,7.0534019-5.4524307,11.6786461-4.1038055 c4.6585846,1.3583603,5.1131248,5.5810776,5.1126823,11.1822968l0.0346336,16.2040482 c0.3135605,2.2850418,3.1839142,1.8458328,6.3868065,1.7309647c3.0039787-0.1076202,2.1962624-3.1851044,2.1962624-6.0686569 c0-9.8817596,1.4108467-21.9318619-4.7012138-27.6996307c-5.4979477-5.1879005-14.9009857-4.5000305-21.2073135,0.2549095 c-0.855217,0.6452637-1.6194115,1.3789482-2.326622,1.818325c-1.5205364-1.0646133-3.5332966-5.5233154-11.4490776-5.6563835 c-2.6311321-0.0439873-5.1733227,0.51651-7.1391611,1.4272499c-0.9533176,0.4409294-1.9261942,0.9905281-2.6709156,1.5078125 C11.0243969,62.2708817,10.0563889,63.2727509,9.3811073,63.6307411"></path> <path fill-rule="evenodd" clip-rule="evenodd" fill="#156666" d="M178.8355713,63.1853867v15.4054565 c-0.0007477,8.0244293,1.9355469,14.3643646,7.9123993,17.0695343c5.4919739,2.4851685,12.4217377,1.5761948,17.2072449-2.1598892 c0.5448151-0.4252701,1.1433258-1.0453568,1.7376251-1.3603516c0.8143616,2.7544098,1.0011902,3.8781738,2.9081726,3.9676437 c3.2562714,0.1526566,3.8596954-0.1107788,3.8362885-3.3591766l-0.0020905-28.3140182 c0.000824-2.6257706,0.6365662-4.7526741-2.3494568-4.8053513c-1.571106-0.0277748-5.5422821-0.6720428-6.0110779,1.1108742 c-0.3008575,1.1425171-0.079834,17.6489449-0.0739441,21.1888313c0.0025177,1.4037323-0.0853271,1.8387985-0.7287903,2.7687912 c-0.5168152,0.7462997-1.0189362,1.3781204-1.635376,1.9011078c-2.3420258,1.9850388-6.8241425,3.7781906-10.5332184,1.5808487 c-3.1397095-1.8594437-3.6265869-5.6587143-3.6265869-10.4208984l0.0004425-14.781723 c0-3.982029-0.876709-3.3409691-5.5096436-3.3437347C178.9589233,59.6315041,178.8355713,60.2526436,178.8355713,63.1853867"></path> <path fill-rule="evenodd" clip-rule="evenodd" fill="#61B032" d="M126.7540054,43.5983162 c-0.0046158,1.7191772-0.1901169,4.7005539,0.3942566,6.0056877c2.1245651-0.2243652,9.4384842-5.7514992,11.0936356-7.197506 c10.1541748-8.8703728,13.6562195-17.7728348,14.9601135-31.1946945c0.1921539-1.9757986,0.2877197-7.3023596-0.4466553-8.6606693 c-2.2309875,0.4749022-8.3071442,4.9998894-10.1678009,6.5221429 C132.3822327,17.4171219,126.8115768,28.7834549,126.7540054,43.5983162"></path> <path fill-rule="evenodd" clip-rule="evenodd" fill="#156666" d="M123.5994492,49.407692 c-0.1515808-5.9473686-0.0097961-10.9156075,1.3346786-16.3823776c0.4528275-1.8438339,0.5063019-1.7887802-0.0703506-3.507679 c-0.3757477-1.1209412-0.8146057-2.1973419-1.2820053-3.2992496c-2.5463715-6.0023117-6.8863297-11.0238361-11.5691223-15.0756912 c-1.3730545-1.187726-8.5701981-6.6200228-10.7333755-6.986311c-1.7911301,9.182601,1.3786392,21.8819008,4.9872208,28.3403053 c2.1894531,3.9185066,4.7267456,6.8696709,7.3843536,9.487915C115.0243454,43.3372116,121.2062607,48.8305969,123.5994492,49.407692 "></path> <path fill-rule="evenodd" clip-rule="evenodd" fill="#156666" d="M235.2210999,67.4062195 c-0.1906738,0.8066101-7.6934357,13.2054062-8.6406403,14.781662c-1.4690857,2.4446182-2.8904114,4.9646454-4.4335327,7.4372559 c-1.3870697,2.2230759-4.8692474,6.5186005,0.8310089,6.4826431c2.9143219-0.0182648,22.3169098,0.2787552,23.375946-0.1893997 c1.4458923-0.6406174,1.0212402-3.16745,1.0224457-4.8454056c0.0015564-2.7213211-0.8808594-2.6596832-3.3678589-2.6473999 c-3.6653748,0.0190887-8.3157959,0.2392502-11.8743134-0.0477524l4.2567444-7.4128571 c3.5098877-6.0583572,7.6342773-12.6904984,10.8746643-18.4874802c1.3272705-2.3744011-0.5283051-2.8503532-2.6303101-2.8454285 c-2.8631897,0.0064201-22.3566895-0.2341042-23.3368073,0.1832008c-1.4542084,0.6190376-1.0121613,3.2427559-1.0093536,4.837162 c0.0043182,2.5389481,0.6546783,2.7650299,3.1062012,2.741188 C227.2869263,67.3560867,231.3395538,67.3090591,235.2210999,67.4062195"></path> <path fill-rule="evenodd" clip-rule="evenodd" fill="#156666" d="M144.4330902,60.3422813 c-0.6842804-1.0525551-2.8765259-0.7107773-4.3116608-0.70895c-4.313858,0.005146-3.1908417-0.1508865-7.0831451,8.3302307 l-6.3641434,14.0470428c-0.6157227-0.418129-0.4430313-0.3091278-0.9641953-1.5192108 c-0.2448654-0.570015-0.416832-0.9734268-0.6727371-1.5826721l-7.2006302-16.3200226 c-1.4996796-3.4824486-1.0018997-2.9483986-6.4455414-2.955368c-4.2862854-0.0052032-3.2100525,1.1930923-1.4328613,4.9903717 l15.1111298,31.9434814c1.0996094,0.9975586,2.7262192,0.4278717,3.2714996-0.60952l4.5363007-9.6322174 c1.8820648-4.2099915,3.9740601-8.5710297,5.9658203-12.758667 C139.7901611,71.5749893,144.8769226,61.770031,144.4330902,60.3422813"></path> <path fill-rule="evenodd" clip-rule="evenodd" fill="#156666" d="M156.9578705,63.8204117 c-1.0497894-2.9960365-0.5458374-4.2179565-4.1425934-4.1935539c-3.6806488,0.0246773-2.7661133,2.3721313-2.7661133,5.6405602 v24.9824066c-0.0009918,4.5787125-1.4831848,6.5201492,6.735199,5.8226547 c1.5870667-0.1346207,1.8383484-0.6536789,1.8509674-2.2713242l-0.0105133-20.8333282 c-0.0146027-1.8520813,0.1086731-2.1693497,1.0592804-3.1279449c5.8663635-5.9213104,10.5982056-1.0709839,12.1384888-2.8424988 c0.4193726-0.4818192,2.6205444-5.0359116,2.5832672-5.6788521c-0.159256-2.7585564-8.2180939-3.4830017-12.7888489-1.1959686 C158.6574249,61.6040382,158.0705414,63.0471153,156.9578705,63.8204117"></path> <path fill-rule="evenodd" clip-rule="evenodd" fill="#61B032" d="M24.7998486,112.4187241 c2.3782997,0.0775757,5.4413719,0.503891,5.4839764-2.0537033c0.0439873-2.6439743-3.2624283-2.201767-5.4625912-2.0946503 L24.7998486,112.4187241z M21.9863186,107.6560364l0.0019913,11.4501038 c0.0002766,0.8210449-0.1384373,1.2149429,0.6080284,1.3868027c0.6707439,0.1547623,1.565937,0.0205841,2.0529289-0.1942139 c0.2068806-1.9278259,0.1200104-3.5611267,0.1298046-5.5742722l2.3677044-0.010788l2.8932076,5.8083801l2.6193485-0.0313721 c0.4044914-1.4827499-2.2996216-4.3628693-2.5550823-5.964798c1.0872173-0.9135666,1.7034607-0.8634338,2.4577007-2.2931747 c0.6786537-1.2856598,0.6185379-2.8993759-0.0414162-4.1272202c-1.4685841-2.7319412-4.1585617-2.4035034-7.6631432-2.4029465 C22.1775131,105.7025375,21.9863186,105.0875397,21.9863186,107.6560364z"></path> <path fill-rule="evenodd" clip-rule="evenodd" fill="#61B032" d="M184.0872955,114.1182556 c-0.6393738-1.7784348-1.5574951-7.2339706-2.3656921-8.2330704c-0.6925049-0.2826309-1.4934998-0.2102051-2.403656-0.1055756 c-0.0285797,1.0828171,3.4517822,14.0118561,4.1777496,14.8382721c0.9970856-0.0434341,0.7555084,0.0541687,1.4963379-1.891861 c0.3826294-1.0080719,0.5900421-1.517662,0.9803925-2.5645218c0.4861908-1.3038635,1.4220886-4.1549911,2.1028137-4.9839478 c1.9193115,2.047226,3.9110718,13.605278,5.28302,7.9742355c0.7164459-2.9419785,3.6024933-11.5874863,3.5138245-13.4002304 l-2.3435822-0.0163727c-1.0805817,1.6314697-1.5274353,7.2542725-2.4980469,8.4984894l-3.4471893-8.6943054 c-1.3971558,0.0089645-1.4663239,1.2506332-2.5159912,4.0662384 C185.7342072,110.5003586,184.7564087,113.6945343,184.0872955,114.1182556"></path> <path fill-rule="evenodd" clip-rule="evenodd" fill="#61B032" d="M217.1394043,120.2948608 c0.4234467-0.4476242,0.3064728-0.5211563,0.2923737-2.0187912l0.0277252-6.8947372 c0.8565063,0.2489319,5.6263885,5.8186111,6.8280029,7.1146774c0.3715973,0.4007034,0.6937866,0.7763977,1.0705414,1.2111282 c0.5121307,0.5915909,0.578476,0.963913,1.6481781,0.8713989c0.4163666-0.7673187,0.4168091-13.7519608,0.0501251-14.6265182 c-0.3972168-0.4560852-1.8851013-0.2392502-2.4858856-0.1114883l-0.118454,8.8166962 c-0.8015289-0.5006256-5.7893524-5.9838867-6.8930359-7.1283951c-1.3803864-1.4318466-1.4701233-2.152916-2.7780914-1.9116135 c-0.2814026,2.325264-0.0431519,9.7610245-0.0850372,13.0808029c-0.0119019,0.9426117-0.2047729,1.5367508,0.5052185,1.7772141 C215.7691956,120.6677322,216.8317108,120.5281906,217.1394043,120.2948608"></path> <path fill-rule="evenodd" clip-rule="evenodd" fill="#61B032" d="M76.3836288,120.2622147 c0.2901764-0.3024368,0.1452103,0.2855072,0.2637024-0.7331314l0.0204773-8.0125809 c1.1775131,0.2901001,3.8263245,3.7273407,4.6458282,4.628067c0.7002029,0.7698135,1.4287949,1.5496979,2.1881027,2.3977509 c0.4036865,0.4514999,0.6748352,0.7636719,1.0779495,1.2128983c0.5615158,0.6252365,0.8362045,1.0078506,1.6076508,0.7233963 c0.4350662-1.1792068,0.1472397-10.204895,0.1706161-12.8259583c0.0023499-0.2215424,0.0159607-0.6354675,0-0.8386993 l-0.1388016-0.7535477c-0.1477585-0.5886612-1.9300919-0.3699341-2.531395-0.163887l-0.1120453,7.7882156 c-0.0955582,0.3934555-0.0853195,0.3354721-0.2178345,0.5510406c-0.9029999-0.33564-3.8884964-3.7952347-4.5672379-4.5141983 l-3.2205429-3.4403992c-0.644455-0.7215118-0.4669571-0.8048401-1.5708542-0.7027512 c-0.3400345,2.1084213-0.0994339,6.4011307-0.0984344,8.7395706c0,1.459343,0.0086823,2.9196777-0.0123444,4.3797989 c-0.0133286,1.0072937-0.2140121,1.5497513,0.5615234,1.7928772C75.0325089,120.673317,76.0840149,120.53228,76.3836288,120.2622147 "></path> <path fill-rule="evenodd" clip-rule="evenodd" fill="#61B032" d="M14.5482883,119.2237701l0.0757751-4.92453 c-0.0531998-0.8153458,0.1004534-0.5252533-0.2725859-0.936409c-0.5358486-0.4533234-3.8569536-0.4956512-4.3577223,0.0274963 c-0.2914543,0.2774811-0.1552858-0.3145523-0.2850075,0.7300339c-0.0203066,0.1647186,0.0210257,1.0021439,0.0796757,1.1463318 c0.2472172,0.6098022,1.1167641,0.3868179,1.9840422,0.4494553l-0.0151329,1.7258682 c-6.1799507,3.1401215-10.0481367-6.3672714-4.31249-8.8611298c2.6025825-1.1320114,3.7176318,0.3437653,5.3377929,0.832283 c0.6896677-0.3019409,1.4212484-0.9716034,1.6307573-1.7571335c-1.5104685-1.8525238-5.363245-2.8870392-8.3449249-1.5002365 c-1.9914846,0.9261246-4.3793015,3.2175827-4.4843745,6.4860153 C1.3658977,119.4247894,8.7980347,122.9786682,14.5482883,119.2237701"></path> <path fill-rule="evenodd" clip-rule="evenodd" fill="#61B032" d="M247.2172546,119.3407364l0.0665588-6.0784454 c-1.2539978-0.147728-3.6756592-0.2597733-4.7624054,0.1161423l-0.0357361,2.0689163l2.0868378,0.2233734 c0.1203461,1.5229721,0.3156128,1.835701-1.2013397,2.1207581c-8.1091766,1.5225372-7.6584625-10.8450012-0.3725281-9.486084 c1.1188354,0.2088699,1.5687256,0.8128052,2.5360107,1.1052246c0.4295959-0.2233658,1.388916-0.8855057,1.5405731-1.4433517 c0.5223236-1.9204102-9.9782562-5.5236511-12.5528412,3.2341232c-1.0443115,3.552887,1.1142426,6.8891525,3.1884766,8.2246628 C240.9774628,121.5278473,244.0804596,120.6738739,247.2172546,119.3407364"></path> <path fill-rule="evenodd" clip-rule="evenodd" fill="#61B032" d="M133.5010681,119.3026733l-0.0352783-6.1087112 c-0.9831085-0.1086731-1.9269867-0.0667877-2.8592834-0.075531c-1.4089355-0.0131149-1.8617554-0.265976-1.8614807,1.1995697 c0.0015411,1.7185669,0.4165497,1.1784821,2.0008087,1.3346786l0.0850372,1.769249 c-6.990654,2.9687653-9.8366318-6.9163666-4.16008-8.9173965c2.7574768-0.9718857,4.2189178,0.7159195,5.1941528,0.9593201 c0.5879211-0.4256058,1.2758636-0.9045486,1.500946-1.8078156c-1.30513-1.9912949-5.6520386-2.7529755-8.2423935-1.5316086 c-5.920311,2.7912064-5.984024,10.641449-0.5634842,13.6320648 C127.6785812,121.4777145,130.6717682,120.5631027,133.5010681,119.3026733"></path> <path fill-rule="evenodd" clip-rule="evenodd" fill="#61B032" d="M40.412384,107.0310745l0.0544739,13.3105392 c1.2047119,0.2279053,8.1794014,0.2328339,9.3103027-0.0308228c0.2232857-3.0497589,0.4700356-2.2954941-5.1419487-2.3767166 l-1.459343-0.0444336l0.0015221-3.5808792c5.6631355-0.0871506,6.1963539,0.4470673,5.4646912-2.540947l-5.4582443-0.1330719 l-0.0198669-3.3409653c4.8691177-0.2972412,7.2604485,0.8514252,6.6388359-1.8583908 c-0.3270569-1.4271393-4.3538208-0.784256-7.4577827-0.7806015 C40.7947464,105.6545105,40.4221764,105.3124542,40.412384,107.0310745"></path> <path fill-rule="evenodd" clip-rule="evenodd" fill="#61B032" d="M66.5905075,120.3158875 c-0.0732574-0.5303421-0.0079956-0.7451935-0.0480499-1.2233582c-0.0274734-0.326622,0.0120621-0.232338-0.0855713-0.5594482 c-0.3878403-1.2961197-4.0431709-0.5177841-6.4797592-0.6339264l-0.0218277-3.6269684l5.4215317,0.0448151 c0.4697571-4.0535126-0.2798615-1.9753571-5.4208145-2.6216125l-0.0770454-3.4730453l6.330143-0.2127457 c0.0445175-0.012619,0.1159439-0.0372925,0.1701736-0.0657349l0.0735016-2.0666504 c-1.2342529-0.336853-3.2568932-0.1484528-4.5381279-0.1474533c-0.7634773,0.0002213-1.5276756,0.0035934-2.2914314-0.0018234 l-1.8322144,0.071701c-0.5041161,0.1436996-0.1546478-0.0203018-0.461235,0.2240906 c-0.2911758,0.6148911-0.3104057,13.3586197-0.0308189,14.1308136l0.3140297,0.15625 C58.6948395,120.6328201,65.8624725,120.4323578,66.5905075,120.3158875"></path> <path fill="#61B032" d="M173.4407349,111.6455078c-0.6396484-3.633606-4.5515137-6.9570312-8.9698486-5.9848633 c-10.0154419,2.2037964-6.6856079,16.7948608,2.8513794,14.9407959 C170.9491577,119.8962402,174.2807617,116.4086914,173.4407349,111.6455078z M167.1853027,117.7942505 c-6.2828979,1.5220947-8.6923218-7.8327026-2.2443848-9.3789062 C171.1055908,106.9362183,173.112793,116.3582764,167.1853027,117.7942505z"></path> <path fill-rule="evenodd" clip-rule="evenodd" fill="#61B032" d="M204.0130463,105.8805923 c-0.4252472,0.9818344-0.1945496,11.4945831-0.1935577,13.2255478c0.0011139,1.0560913-0.2060394,1.247261,0.71698,1.4140778 c2.609024,0.4710312,2.0162506-0.8991165,2.0159607-4.3288956l0.0120697-8.7560577 c0.0079651-0.664299,0.1655121-1.3706436-0.4219208-1.6458588 C205.5543213,105.5136337,204.4182587,105.7231216,204.0130463,105.8805923"></path> <path fill="#61B032" d="M146.8568726,105.7001343c-1.4128418-0.0222778-4.5368042-0.1410522-5.7695312,0.1375732 c-0.2667236,2.0182495-0.0668335,9.9593506-0.0930176,13.0743408c-0.0074463,0.9099121-0.1662598,1.3355103,0.5046387,1.565979 c0.5587158,0.1906738,1.5834961,0.0584106,2.0414429-0.1228027c0.5817261-1.0560913,0.1672974-4.1356812,0.2495117-5.5852661 l2.2312622-0.0739746l2.991394,5.7684326l2.71875,0.0267944c0.2492676-1.3953247-2.2664795-4.3007202-2.6164551-6.0236816 C154.2904663,111.5012817,152.2599487,105.784729,146.8568726,105.7001343z M144.3505859,112.4407959 c-0.8734741-0.1827393-0.6063843-0.757019-0.5881348-1.8638306c0.0125732-0.7531738-0.0042114-1.4849854,0.0394897-2.237915 C151.7020264,106.8904419,150.6011353,113.7521362,144.3505859,112.4407959z"></path> <path fill="#61B032" d="M109.1697388,116.8162231c0.4515381-1.4169922,1.2422485-2.1693726,1.1014404-4.0244141 l-1.9285278-0.4716187c-0.3171387,0.9971313-0.4168701,2.0836182-1.043335,2.7462769l-2.1796875-2.1480103 c0.7164307-1.4219971,2.5296631-1.7244873,2.3842163-4.2163086c-0.22052-3.8010864-6.3175659-4.3030396-7.6942749-1.0356445 c-1.0355225,2.4563599,0.8570557,3.4144287,1.442688,4.7776489c-0.6912231,1.0203857-1.8137207,0.8895874-2.5049438,2.8898926 c-0.5355835,1.5479736-0.0742188,3.1697388,0.9122314,4.1276855c1.0098877,0.9799194,2.5018921,1.3858032,4.0614014,1.2311401 c2.1724854-0.2158203,2.8207397-1.3041382,3.9946289-1.5808716c0.7177124,0.6028442,0.9155884,1.1119385,1.8735352,1.5304565 c0.8120728-0.2558594,1.2527466-0.7335815,1.5272217-1.5363159 C110.6447754,118.0316772,109.736145,117.8161011,109.1697388,116.8162231z M102.9453735,107.6195068 c1.9887695-0.7346802,3.3275146,1.9490967,1.132019,3.2958984 C102.7590942,111.7249146,100.6984253,108.4492188,102.9453735,107.6195068z M101.2059937,115.4950562 c0.4541016-1.2555542,1.4456787-1.883728,2.4979858-0.7125244c0.6773682,0.7537231,1.7279053,1.6102295,2.1254272,2.4497681 C104.381897,119.3761597,100.0853271,118.593689,101.2059937,115.4950562z"></path> </svg> 